<svg width="15" height="13" viewBox="0 0 15 13" fill="none" xmlns="http://www.w3.org/2000/svg">
<path d="M1.36835 0.684176V11.4029H13.9116C14.093 11.4029 14.2671 11.475 14.3954 11.6033C14.5237 11.7316 14.5958 11.9057 14.5958 12.0871C14.5958 12.2686 14.5237 12.4426 14.3954 12.5709C14.2671 12.6992 14.093 12.7713 13.9116 12.7713H0.684176C0.502721 12.7713 0.328698 12.6992 0.200391 12.5709C0.0720826 12.4426 0 12.2686 0 12.0871L0 0.684176C0 0.502721 0.0720826 0.328698 0.200391 0.200391C0.328698 0.0720827 0.502721 0 0.684176 0C0.865631 0 1.03965 0.0720827 1.16796 0.200391C1.29627 0.328698 1.36835 0.502721 1.36835 0.684176ZM14.3951 2.99213L9.60583 7.78136C9.47755 7.90949 9.30366 7.98145 9.12235 7.98145C8.94104 7.98145 8.76715 7.90949 8.63886 7.78136L6.38564 5.52814L3.90437 8.00942C3.7747 8.13042 3.6031 8.19634 3.42577 8.19328C3.24844 8.19021 3.07923 8.11841 2.95382 7.993C2.82841 7.86759 2.7566 7.69838 2.75354 7.52105C2.75048 7.34371 2.8164 7.17212 2.9374 7.04245L5.90216 4.07769C6.03044 3.94957 6.20434 3.8776 6.38564 3.8776C6.56695 3.8776 6.74085 3.94957 6.86913 4.07769L9.12235 6.33091L13.4281 2.02516C13.5578 1.90416 13.7294 1.83824 13.9067 1.84131C14.084 1.84437 14.2532 1.91617 14.3786 2.04158C14.5041 2.167 14.5759 2.33621 14.5789 2.51354C14.582 2.69087 14.5161 2.86246 14.3951 2.99213Z" fill="white"/>
</svg>
