<svg width="16" height="16" viewBox="0 0 16 16" fill="none" xmlns="http://www.w3.org/2000/svg">
<path d="M7.8001 8.0001V7.6001M11.0001 8.0001V7.6001M4.6001 8.0001V7.6001M15.0001 7.8001C15.0001 8.74561 14.8139 9.68187 14.452 10.5554C14.0902 11.429 13.5598 12.2227 12.8913 12.8913C12.2227 13.5598 11.429 14.0902 10.5554 14.452C9.68187 14.8139 8.74561 15.0001 7.8001 15.0001C6.85458 15.0001 5.91832 14.8139 5.04478 14.452C4.17123 14.0902 3.37751 13.5598 2.70893 12.8913C2.04035 12.2227 1.51 11.429 1.14816 10.5554C0.786331 9.68187 0.600098 8.74561 0.600098 7.8001C0.600098 5.89054 1.35867 4.05919 2.70893 2.70893C4.05919 1.35867 5.89054 0.600098 7.8001 0.600098C9.70966 0.600098 11.541 1.35867 12.8913 2.70893C14.2415 4.05919 15.0001 5.89054 15.0001 7.8001Z" stroke="currentColor" stroke-width="1.2" stroke-linecap="round" stroke-linejoin="round"/>
</svg>
