<svg width="15" height="15" viewBox="0 0 15 15" fill="none" xmlns="http://www.w3.org/2000/svg">
<mask id="path-1-outside-1_4061_12790" maskUnits="userSpaceOnUse" x="-1" y="-1" width="17" height="17" fill="black">
<rect fill="white" x="-1" y="-1" width="17" height="17"/>
<path d="M14.4825 9.03825C14.7683 9.03825 15 9.27375 15 9.56325V13.2518C14.9955 13.7543 14.9048 14.1518 14.7008 14.4473C14.4548 14.8043 14.0198 14.9663 13.3905 15L1.46327 14.9985C0.978765 14.964 0.587265 14.772 0.333015 14.4158C0.106515 14.0985 -0.00148459 13.7032 1.54081e-05 13.2472V9.5625C1.54081e-05 9.273 0.231765 9.0375 0.517515 9.0375C0.803265 9.0375 1.03352 9.273 1.03352 9.5625V13.2472C1.03352 13.497 1.08227 13.6763 1.17002 13.7992C1.23077 13.8848 1.33802 13.9373 1.50002 13.95L13.3628 13.9508C13.6778 13.9335 13.833 13.8758 13.854 13.8458C13.917 13.7535 13.9635 13.551 13.9665 13.2457V9.5625C13.9665 9.273 14.1975 9.0375 14.4833 9.0375M7.49252 0C7.77752 0 8.01002 0.23475 8.01002 0.525L8.00927 8.67675L10.3058 6.3675C10.3535 6.31882 10.4105 6.2802 10.4734 6.25393C10.5363 6.22766 10.6039 6.21427 10.672 6.21455C10.7402 6.21483 10.8076 6.22878 10.8703 6.25556C10.933 6.28235 10.9897 6.32143 11.037 6.3705C11.1338 6.47002 11.1877 6.60353 11.1872 6.74236C11.1866 6.88119 11.1316 7.01427 11.034 7.113L7.76702 10.398C7.71936 10.4465 7.66249 10.485 7.59975 10.5112C7.53701 10.5374 7.46966 10.5508 7.40167 10.5506C7.33367 10.5503 7.26641 10.5365 7.20383 10.51C7.14125 10.4834 7.08462 10.4445 7.03727 10.3958L3.81527 7.11075C3.71826 7.01143 3.66409 6.87802 3.66437 6.73919C3.66465 6.60036 3.71936 6.46718 3.81677 6.36825C3.86439 6.31947 3.92132 6.28074 3.98417 6.25434C4.04703 6.22794 4.11453 6.21441 4.18271 6.21455C4.25088 6.21469 4.31833 6.2285 4.38108 6.25516C4.44382 6.28181 4.50059 6.32078 4.54802 6.36975L6.97502 8.8455V0.52425C6.97502 0.23475 7.20752 0 7.49252 0Z"/>
</mask>
<path d="M14.4825 9.03825C14.7683 9.03825 15 9.27375 15 9.56325V13.2518C14.9955 13.7543 14.9048 14.1518 14.7008 14.4473C14.4548 14.8043 14.0198 14.9663 13.3905 15L1.46327 14.9985C0.978765 14.964 0.587265 14.772 0.333015 14.4158C0.106515 14.0985 -0.00148459 13.7032 1.54081e-05 13.2472V9.5625C1.54081e-05 9.273 0.231765 9.0375 0.517515 9.0375C0.803265 9.0375 1.03352 9.273 1.03352 9.5625V13.2472C1.03352 13.497 1.08227 13.6763 1.17002 13.7992C1.23077 13.8848 1.33802 13.9373 1.50002 13.95L13.3628 13.9508C13.6778 13.9335 13.833 13.8758 13.854 13.8458C13.917 13.7535 13.9635 13.551 13.9665 13.2457V9.5625C13.9665 9.273 14.1975 9.0375 14.4833 9.0375M7.49252 0C7.77752 0 8.01002 0.23475 8.01002 0.525L8.00927 8.67675L10.3058 6.3675C10.3535 6.31882 10.4105 6.2802 10.4734 6.25393C10.5363 6.22766 10.6039 6.21427 10.672 6.21455C10.7402 6.21483 10.8076 6.22878 10.8703 6.25556C10.933 6.28235 10.9897 6.32143 11.037 6.3705C11.1338 6.47002 11.1877 6.60353 11.1872 6.74236C11.1866 6.88119 11.1316 7.01427 11.034 7.113L7.76702 10.398C7.71936 10.4465 7.66249 10.485 7.59975 10.5112C7.53701 10.5374 7.46966 10.5508 7.40167 10.5506C7.33367 10.5503 7.26641 10.5365 7.20383 10.51C7.14125 10.4834 7.08462 10.4445 7.03727 10.3958L3.81527 7.11075C3.71826 7.01143 3.66409 6.87802 3.66437 6.73919C3.66465 6.60036 3.71936 6.46718 3.81677 6.36825C3.86439 6.31947 3.92132 6.28074 3.98417 6.25434C4.04703 6.22794 4.11453 6.21441 4.18271 6.21455C4.25088 6.21469 4.31833 6.2285 4.38108 6.25516C4.44382 6.28181 4.50059 6.32078 4.54802 6.36975L6.97502 8.8455V0.52425C6.97502 0.23475 7.20752 0 7.49252 0Z" fill="white"/>
<path d="M15 13.2518L15.1 13.2526V13.2518H15ZM14.7008 14.4473L14.6185 14.3904L14.6184 14.3905L14.7008 14.4473ZM13.3905 15L13.3905 15.1001L13.3959 15.0999L13.3905 15ZM1.46327 14.9985L1.45614 15.0985L1.46325 15.0985L1.46327 14.9985ZM0.333015 14.4158L0.414412 14.3577L0.414402 14.3576L0.333015 14.4158ZM1.54081e-05 13.2472L0.100015 13.2476V13.2472H1.54081e-05ZM1.17002 13.7992L1.25153 13.7413L1.25142 13.7412L1.17002 13.7992ZM1.50002 13.95L1.49215 14.05H1.50001L1.50002 13.95ZM13.3628 13.9508L13.3628 14.0509L13.3682 14.0506L13.3628 13.9508ZM13.854 13.8458L13.9359 13.9031L13.9366 13.9021L13.854 13.8458ZM13.9665 13.2457L14.0665 13.2467V13.2457H13.9665ZM8.01002 0.525L8.11002 0.525009V0.525H8.01002ZM8.00927 8.67675L7.90927 8.67674L7.90924 8.91914L8.08017 8.74726L8.00927 8.67675ZM10.3058 6.3675L10.3767 6.43802L10.3772 6.43751L10.3058 6.3675ZM11.037 6.3705L10.965 6.43992L10.9653 6.44023L11.037 6.3705ZM11.034 7.113L11.1049 7.18352L11.1051 7.1833L11.034 7.113ZM7.76702 10.398L7.69611 10.3275L7.69569 10.3279L7.76702 10.398ZM7.03727 10.3958L7.10903 10.3261L7.10866 10.3257L7.03727 10.3958ZM3.81527 7.11075L3.74372 7.18062L3.74387 7.18077L3.81527 7.11075ZM3.81677 6.36825L3.88802 6.43841L3.88831 6.43811L3.81677 6.36825ZM4.54802 6.36975L4.47618 6.43932L4.47661 6.43975L4.54802 6.36975ZM6.97502 8.8455L6.90361 8.9155L7.07502 9.09036V8.8455H6.97502ZM14.4825 9.03825V9.13825C14.7116 9.13825 14.9 9.32757 14.9 9.56325H15H15.1C15.1 9.21993 14.8249 8.93825 14.4825 8.93825V9.03825ZM15 9.56325H14.9V13.2518H15H15.1V9.56325H15ZM15 13.2518L14.9 13.2509C14.8956 13.7436 14.8064 14.1182 14.6185 14.3904L14.7008 14.4473L14.7831 14.5041C15.0031 14.1853 15.0954 13.7649 15.1 13.2526L15 13.2518ZM14.7008 14.4473L14.6184 14.3905C14.399 14.709 14.0037 14.867 13.3852 14.9001L13.3905 15L13.3959 15.0999C14.0358 15.0655 14.5105 14.8995 14.7831 14.504L14.7008 14.4473ZM13.3905 15L13.3905 14.9L1.46328 14.8985L1.46327 14.9985L1.46325 15.0985L13.3905 15.1L13.3905 15ZM1.46327 14.9985L1.47037 14.8988C1.00946 14.8659 0.648058 14.685 0.414412 14.3577L0.333015 14.4158L0.251619 14.4738C0.526472 14.859 0.948071 15.0621 1.45616 15.0982L1.46327 14.9985ZM0.333015 14.4158L0.414402 14.3576C0.202657 14.0611 0.0985675 13.6876 0.100015 13.2476L1.54081e-05 13.2472L-0.099984 13.2469C-0.101537 13.7189 0.0103737 14.1359 0.251629 14.4739L0.333015 14.4158ZM1.54081e-05 13.2472H0.100015V9.5625H1.54081e-05H-0.0999846V13.2472H1.54081e-05ZM1.54081e-05 9.5625H0.100015C0.100015 9.32682 0.288394 9.1375 0.517515 9.1375V9.0375V8.9375C0.175137 8.9375 -0.0999846 9.21918 -0.0999846 9.5625H1.54081e-05ZM0.517515 9.0375V9.1375C0.746262 9.1375 0.933515 9.32644 0.933515 9.5625H1.03352H1.13352C1.13352 9.21956 0.860269 8.9375 0.517515 8.9375V9.0375ZM1.03352 9.5625H0.933515V13.2472H1.03352H1.13352V9.5625H1.03352ZM1.03352 13.2472H0.933515C0.933515 13.5084 0.984234 13.711 1.08861 13.8573L1.17002 13.7992L1.25142 13.7412C1.1803 13.6415 1.13352 13.4856 1.13352 13.2472H1.03352ZM1.17002 13.7992L1.0885 13.8572C1.17268 13.9757 1.31348 14.0356 1.49217 14.0497L1.50002 13.95L1.50786 13.8503C1.36255 13.8389 1.28885 13.7938 1.25153 13.7413L1.17002 13.7992ZM1.50002 13.95L1.50001 14.05L13.3628 14.0507L13.3628 13.9508L13.3628 13.8507L1.50002 13.85L1.50002 13.95ZM13.3628 13.9508L13.3682 14.0506C13.5305 14.0417 13.6547 14.0223 13.7431 14C13.7871 13.9889 13.824 13.9767 13.8531 13.9639C13.8676 13.9575 13.8817 13.9502 13.8945 13.9419C13.9057 13.9346 13.9226 13.9221 13.9359 13.9031L13.854 13.8458L13.7721 13.7884C13.7801 13.7769 13.7877 13.7728 13.7851 13.7744C13.7841 13.7751 13.7802 13.7774 13.7723 13.7809C13.7565 13.7879 13.731 13.7968 13.6942 13.8061C13.621 13.8245 13.51 13.8425 13.3573 13.8509L13.3628 13.9508ZM13.854 13.8458L13.9366 13.9021C13.9791 13.8399 14.0099 13.751 14.0309 13.6451C14.0522 13.5372 14.065 13.4039 14.0665 13.2467L13.9665 13.2457L13.8665 13.2448C13.8651 13.3929 13.8531 13.5134 13.8347 13.6062C13.8159 13.7009 13.7919 13.7594 13.7714 13.7894L13.854 13.8458ZM13.9665 13.2457H14.0665V9.5625H13.9665H13.8665V13.2457H13.9665ZM13.9665 9.5625H14.0665C14.0665 9.32663 14.2543 9.1375 14.4833 9.1375V9.0375V8.9375C14.1407 8.9375 13.8665 9.21937 13.8665 9.5625H13.9665ZM7.49252 0V0.1C7.72107 0.1 7.91002 0.288757 7.91002 0.525H8.01002H8.11002C8.11002 0.180743 7.83396 -0.1 7.49252 -0.1V0ZM8.01002 0.525L7.91002 0.524991L7.90927 8.67674L8.00927 8.67675L8.10927 8.67676L8.11002 0.525009L8.01002 0.525ZM8.00927 8.67675L8.08017 8.74726L10.3767 6.43801L10.3058 6.3675L10.2349 6.29699L7.93836 8.60624L8.00927 8.67675ZM10.3058 6.3675L10.3772 6.43751C10.4155 6.39837 10.4614 6.36733 10.5119 6.34621L10.4734 6.25393L10.4349 6.16166C10.3596 6.19308 10.2914 6.23927 10.2344 6.29749L10.3058 6.3675ZM10.4734 6.25393L10.5119 6.34621C10.5625 6.32509 10.6168 6.31433 10.6716 6.31455L10.672 6.21455L10.6724 6.11455C10.5909 6.11422 10.5101 6.13023 10.4349 6.16166L10.4734 6.25393ZM10.672 6.21455L10.6716 6.31455C10.7264 6.31478 10.7806 6.32599 10.831 6.34752L10.8703 6.25556L10.9096 6.1636C10.8346 6.13157 10.754 6.11489 10.6724 6.11455L10.672 6.21455ZM10.8703 6.25556L10.831 6.34752C10.8814 6.36905 10.927 6.40047 10.965 6.43992L11.037 6.3705L11.109 6.30108C11.0524 6.24239 10.9846 6.19564 10.9096 6.1636L10.8703 6.25556ZM11.037 6.3705L10.9653 6.44023C11.0439 6.52098 11.0876 6.62931 11.0872 6.74196L11.1872 6.74236L11.2872 6.74277C11.2878 6.57775 11.2238 6.41906 11.1087 6.30077L11.037 6.3705ZM11.1872 6.74236L11.0872 6.74196C11.0867 6.85461 11.0421 6.96258 10.9629 7.0427L11.034 7.113L11.1051 7.1833C11.2211 7.06595 11.2865 6.90778 11.2872 6.74277L11.1872 6.74236ZM11.034 7.113L10.9631 7.04248L7.69611 10.3275L7.76702 10.398L7.83792 10.4685L11.1049 7.18352L11.034 7.113ZM7.76702 10.398L7.69569 10.3279C7.65738 10.3669 7.61166 10.3978 7.56122 10.4189L7.59975 10.5112L7.63828 10.6035C7.71332 10.5721 7.78135 10.5261 7.83834 10.4681L7.76702 10.398ZM7.59975 10.5112L7.56122 10.4189C7.51078 10.44 7.45663 10.4507 7.40198 10.4506L7.40167 10.5506L7.40136 10.6506C7.48268 10.6508 7.56324 10.6348 7.63828 10.6035L7.59975 10.5112ZM7.40167 10.5506L7.40198 10.4506C7.34731 10.4504 7.29324 10.4393 7.24293 10.4179L7.20383 10.51L7.16473 10.602C7.23958 10.6338 7.32003 10.6503 7.40136 10.6506L7.40167 10.5506ZM7.20383 10.51L7.24293 10.4179C7.19262 10.3965 7.14709 10.3653 7.10903 10.3261L7.03727 10.3958L6.96551 10.4654C7.02215 10.5238 7.08988 10.5702 7.16473 10.602L7.20383 10.51ZM7.03727 10.3958L7.10866 10.3257L3.88666 7.04073L3.81527 7.11075L3.74387 7.18077L6.96587 10.4658L7.03727 10.3958ZM3.81527 7.11075L3.88681 7.04088C3.8081 6.96029 3.76414 6.85204 3.76437 6.7394L3.66437 6.73919L3.56437 6.73899C3.56403 6.90401 3.62843 7.06257 3.74372 7.18062L3.81527 7.11075ZM3.66437 6.73919L3.76437 6.7394C3.76459 6.62675 3.80899 6.51868 3.88802 6.43841L3.81677 6.36825L3.74551 6.29809C3.62974 6.41568 3.5647 6.57398 3.56437 6.73899L3.66437 6.73919ZM3.81677 6.36825L3.88831 6.43811C3.9266 6.3989 3.97236 6.36776 4.02289 6.34654L3.98417 6.25434L3.94545 6.16214C3.87027 6.19372 3.80218 6.24005 3.74522 6.29839L3.81677 6.36825ZM3.98417 6.25434L4.02289 6.34654C4.07342 6.32532 4.1277 6.31444 4.1825 6.31455L4.18271 6.21455L4.18291 6.11455C4.10137 6.11439 4.02063 6.13057 3.94545 6.16214L3.98417 6.25434ZM4.18271 6.21455L4.1825 6.31455C4.23731 6.31467 4.29153 6.32576 4.34198 6.34719L4.38108 6.25516L4.42018 6.16312C4.34513 6.13123 4.26445 6.11472 4.18291 6.11455L4.18271 6.21455ZM4.38108 6.25516L4.34198 6.34719C4.39242 6.36862 4.43805 6.39995 4.47618 6.43932L4.54802 6.36975L4.61985 6.30018C4.56312 6.24161 4.49523 6.195 4.42018 6.16312L4.38108 6.25516ZM4.54802 6.36975L4.47661 6.43975L6.90361 8.9155L6.97502 8.8455L7.04643 8.7755L4.61943 6.29975L4.54802 6.36975ZM6.97502 8.8455H7.07502V0.52425H6.97502H6.87502V8.8455H6.97502ZM6.97502 0.52425H7.07502C7.07502 0.28885 7.26387 0.1 7.49252 0.1V0V-0.1C7.15117 -0.1 6.87502 0.18065 6.87502 0.52425H6.97502Z" fill="white" mask="url(#path-1-outside-1_4061_12790)"/>
</svg>
