<svg width="15" height="12" viewBox="0 0 15 12" fill="none" xmlns="http://www.w3.org/2000/svg">
<path d="M2.37674 7.65L4.96244 10.0836C5.08899 10.2072 5.16198 10.3755 5.1657 10.5523C5.16942 10.7292 5.10358 10.9004 4.98233 11.0292C4.86109 11.158 4.69413 11.2341 4.51739 11.241C4.34064 11.248 4.16822 11.1853 4.03724 11.0664L0.212235 7.4664C0.145222 7.40329 0.0918246 7.32714 0.0553262 7.24264C0.0188279 7.15813 0 7.06705 0 6.975C0 6.88295 0.0188279 6.79187 0.0553262 6.70736C0.0918246 6.62286 0.145222 6.54671 0.212235 6.4836L4.03724 2.8836C4.1014 2.82095 4.1774 2.7717 4.26081 2.73875C4.34422 2.7058 4.43336 2.6898 4.52302 2.69169C4.61268 2.69358 4.70107 2.71331 4.78302 2.74974C4.86496 2.78617 4.93883 2.83857 5.0003 2.90386C5.06177 2.96916 5.10962 3.04606 5.14104 3.13005C5.17246 3.21405 5.18682 3.30347 5.1833 3.39308C5.17977 3.48269 5.15843 3.5707 5.1205 3.65197C5.08258 3.73324 5.02885 3.80613 4.96244 3.8664L2.37674 6.3H11.4748C11.8926 6.3 12.2932 6.13406 12.5885 5.83869C12.8839 5.54332 13.0498 5.14272 13.0498 4.725V0.675C13.0498 0.495979 13.121 0.32429 13.2475 0.197703C13.3741 0.0711158 13.5458 0 13.7248 0C13.9039 0 14.0755 0.0711158 14.2021 0.197703C14.3287 0.32429 14.3998 0.495979 14.3998 0.675V4.725C14.3998 5.50076 14.0917 6.24474 13.5431 6.79329C12.9946 7.34183 12.2506 7.65 11.4748 7.65H2.37674Z" fill="#D7D7D7"/>
</svg>
