<svg width="13" height="13" viewBox="0 0 13 13" fill="none" xmlns="http://www.w3.org/2000/svg">
<path d="M9.03125 3.1875C9.17215 3.1875 9.30727 3.24347 9.4069 3.3431C9.50653 3.44273 9.5625 3.57785 9.5625 3.71875C9.5625 3.85965 9.50653 3.99477 9.4069 4.0944C9.30727 4.19403 9.17215 4.25 9.03125 4.25H3.71875C3.57785 4.25 3.44273 4.19403 3.3431 4.0944C3.24347 3.99477 3.1875 3.85965 3.1875 3.71875C3.1875 3.57785 3.24347 3.44273 3.3431 3.3431C3.44273 3.24347 3.57785 3.1875 3.71875 3.1875H9.03125ZM9.03125 5.84375C9.17215 5.84375 9.30727 5.89972 9.4069 5.99935C9.50653 6.09898 9.5625 6.2341 9.5625 6.375C9.5625 6.5159 9.50653 6.65102 9.4069 6.75065C9.30727 6.85028 9.17215 6.90625 9.03125 6.90625H5.84375C5.70285 6.90625 5.56773 6.85028 5.4681 6.75065C5.36847 6.65102 5.3125 6.5159 5.3125 6.375C5.3125 6.2341 5.36847 6.09898 5.4681 5.99935C5.56773 5.89972 5.70285 5.84375 5.84375 5.84375H9.03125ZM9.03125 8.5C9.17215 8.5 9.30727 8.55597 9.4069 8.6556C9.50653 8.75523 9.5625 8.89035 9.5625 9.03125C9.5625 9.17215 9.50653 9.30727 9.4069 9.4069C9.30727 9.50653 9.17215 9.5625 9.03125 9.5625H3.71875C3.57785 9.5625 3.44273 9.50653 3.3431 9.4069C3.24347 9.30727 3.1875 9.17215 3.1875 9.03125C3.1875 8.89035 3.24347 8.75523 3.3431 8.6556C3.44273 8.55597 3.57785 8.5 3.71875 8.5H9.03125ZM10.0938 0C10.7982 0 11.4739 0.279854 11.972 0.777998C12.4701 1.27614 12.75 1.95177 12.75 2.65625V10.0938C12.75 10.7982 12.4701 11.4739 11.972 11.972C11.4739 12.4701 10.7982 12.75 10.0938 12.75H2.65625C1.95177 12.75 1.27614 12.4701 0.777998 11.972C0.279854 11.4739 0 10.7982 0 10.0938V2.65625C0 1.95177 0.279854 1.27614 0.777998 0.777998C1.27614 0.279854 1.95177 0 2.65625 0H10.0938ZM11.6875 2.65625C11.6875 2.23356 11.5196 1.82818 11.2207 1.5293C10.9218 1.23041 10.5164 1.0625 10.0938 1.0625H2.65625C2.23356 1.0625 1.82818 1.23041 1.5293 1.5293C1.23041 1.82818 1.0625 2.23356 1.0625 2.65625V10.0938C1.0625 10.5164 1.23041 10.9218 1.5293 11.2207C1.82818 11.5196 2.23356 11.6875 2.65625 11.6875H10.0938C10.5164 11.6875 10.9218 11.5196 11.2207 11.2207C11.5196 10.9218 11.6875 10.5164 11.6875 10.0938V2.65625Z" fill="currentColor"/>
</svg>
