<svg width="16" height="16" viewBox="0 0 16 16" fill="none" xmlns="http://www.w3.org/2000/svg">
<g clip-path="url(#clip0_4061_12781)">
<path d="M11.2377 4.99588C10.5981 4.99588 9.98401 4.99911 9.36987 4.99495C8.55332 4.98941 7.85369 4.49495 7.59907 3.72416C7.53022 3.51575 7.49926 3.28747 7.49417 3.0675C7.48031 2.47508 7.48955 1.8822 7.48955 1.25235H7.26266C5.50711 1.25235 3.75111 1.25235 1.99556 1.25235C1.48262 1.25235 1.25064 1.48664 1.25064 2.00327C1.25064 6.00004 1.25064 9.99634 1.25064 13.9931C1.25064 14.5107 1.48262 14.7454 1.99417 14.7459C2.87957 14.7468 3.76543 14.744 4.65083 14.7477C4.96229 14.7491 5.18456 14.9095 5.26774 15.1752C5.35138 15.4418 5.27375 15.7218 5.04362 15.8679C4.93271 15.9381 4.78761 15.9889 4.65776 15.9903C3.7109 16 2.76312 16.007 1.81626 15.9917C0.801013 15.9746 0.00249207 15.135 0.00156785 14.0952C-0.00120479 10.0291 0.00018153 5.96353 0.00202996 1.89745C0.00202996 1.77545 0.0172795 1.65161 0.0394606 1.53146C0.196115 0.675175 0.934562 0.0138996 1.79778 0.00835432C3.8999 -0.00504678 6.00249 -0.00134993 8.10462 0.0125133C8.26959 0.0134375 8.47338 0.106321 8.5926 0.223696C9.83197 1.44412 11.0621 2.67471 12.2816 3.91593C12.3971 4.03331 12.4632 4.2371 12.4789 4.40761C12.5094 4.73571 12.4905 5.06889 12.4872 5.40022C12.4831 5.77684 12.2331 6.04255 11.8828 6.05041C11.5395 6.05826 11.2613 5.79163 11.2396 5.42702C11.2312 5.29116 11.2382 5.15438 11.2382 4.99634L11.2377 4.99588ZM8.73955 2.1932C8.73955 2.46307 8.73955 2.71584 8.73955 2.96908C8.73955 3.02314 8.73724 3.07721 8.74094 3.13081C8.76266 3.4395 8.96645 3.70845 9.25157 3.73063C9.59861 3.75789 9.94935 3.7371 10.2862 3.7371C9.77421 3.22601 9.26589 2.71908 8.73955 2.1932Z" fill="white"/>
<path d="M6.60593 15.2864C6.68819 14.8812 6.7954 14.401 6.88088 13.9172C7.00103 13.237 7.29447 12.6515 7.78384 12.163C8.32867 11.6201 8.87118 11.0748 9.41508 10.5304C10.6281 9.31738 11.8411 8.10435 13.0546 6.89132C13.4507 6.4953 13.7515 6.49206 14.1429 6.88116C14.672 7.4075 15.1997 7.93522 15.7265 8.46433C16.0879 8.82755 16.0888 9.15934 15.7265 9.52164C13.9752 11.2744 12.221 13.0244 10.4715 14.779C9.96591 15.286 9.36379 15.5951 8.66138 15.7227C8.23024 15.8007 7.80233 15.8936 7.3721 15.9768C6.95898 16.0563 6.60593 15.773 6.60547 15.286L6.60593 15.2864ZM8.04401 14.5434C8.75935 14.5041 9.30279 14.2037 9.78338 13.7074C10.9447 12.5087 12.1369 11.3396 13.3185 10.1607C13.7044 9.77579 14.0962 9.3964 14.4562 9.04335C14.1508 8.72958 13.8689 8.4403 13.5838 8.14733C13.5736 8.15426 13.5523 8.16443 13.5371 8.18014C11.8943 9.82293 10.2506 11.4653 8.60963 13.1099C8.21822 13.5022 8.11055 14.0096 8.04355 14.5434H8.04401Z" fill="white"/>
<path d="M6.2624 6.00685C7.27072 6.00685 8.27904 6.00592 9.28735 6.00685C9.72774 6.00685 9.98745 6.2379 9.98699 6.62422C9.98699 7.00361 9.71295 7.25638 9.2892 7.25638C7.25732 7.25823 5.22543 7.25823 3.19308 7.25638C2.83357 7.25638 2.58772 7.06877 2.51148 6.75176C2.44909 6.49206 2.58033 6.19446 2.83495 6.0757C2.94124 6.02625 3.07201 6.00962 3.19124 6.00916C4.2148 6.00407 5.23837 6.00638 6.2624 6.00638V6.00685Z" fill="white"/>
<path d="M5.66115 8.50478C6.47723 8.50478 7.29331 8.50339 8.10939 8.50524C8.52482 8.50617 8.79192 8.7497 8.79285 9.12123C8.79377 9.48445 8.51373 9.75293 8.11401 9.7534C6.46614 9.75617 4.81872 9.75663 3.17085 9.7534C2.7776 9.75247 2.49063 9.47197 2.49617 9.1143C2.50172 8.75617 2.77251 8.50663 3.16669 8.50524C3.99802 8.50293 4.82981 8.50432 5.66115 8.50432V8.50478Z" fill="white"/>
<path d="M4.47022 11.0028C4.9009 11.0028 5.33112 11.0004 5.76181 11.0037C6.16291 11.0064 6.42077 11.2454 6.42539 11.6118C6.42955 11.9861 6.16476 12.2486 5.76227 12.2509C4.90136 12.2555 4.04046 12.2546 3.17909 12.2509C2.78029 12.2495 2.49656 11.9829 2.49609 11.6234C2.49609 11.2597 2.7729 11.0055 3.17909 11.0032C3.60977 11.0009 4.03999 11.0028 4.47068 11.0028H4.47022Z" fill="white"/>
</g>
<defs>
<clipPath id="clip0_4061_12781">
<rect width="15.9963" height="16" fill="white"/>
</clipPath>
</defs>
</svg>
