<svg width="13" height="13" viewBox="0 0 13 13" fill="none" xmlns="http://www.w3.org/2000/svg">
<path fill-rule="evenodd" clip-rule="evenodd" d="M5.78273 1.3042e-08C4.86054 7.85782e-05 3.95174 0.220691 3.13215 0.643431C2.31256 1.06617 1.60595 1.67878 1.07127 2.43015C0.536585 3.18152 0.189341 4.04985 0.0585026 4.96272C-0.0723354 5.87558 0.0170274 6.8065 0.319136 7.6778C0.621244 8.5491 1.12734 9.33552 1.79519 9.97146C2.46304 10.6074 3.27329 11.0744 4.15834 11.3335C5.04338 11.5926 5.97755 11.6363 6.88292 11.4609C7.78829 11.2856 8.63859 10.8963 9.36289 10.3254L11.8476 12.8102C11.976 12.9341 12.1478 13.0027 12.3262 13.0011C12.5046 12.9996 12.6753 12.928 12.8014 12.8019C12.9276 12.6757 12.9991 12.5051 13.0007 12.3267C13.0022 12.1483 12.9336 11.9764 12.8097 11.8481L10.3249 9.36338C10.9972 8.51061 11.4157 7.48581 11.5327 6.40627C11.6497 5.32673 11.4604 4.23606 10.9864 3.25908C10.5125 2.28211 9.77308 1.4583 8.85281 0.881929C7.93254 0.305563 6.86859 -7.28981e-05 5.78273 1.3042e-08ZM1.36027 5.78323C1.36027 4.61031 1.8262 3.48544 2.65558 2.65607C3.48495 1.8267 4.60982 1.36076 5.78273 1.36076C6.95564 1.36076 8.08052 1.8267 8.90989 2.65607C9.73926 3.48544 10.2052 4.61031 10.2052 5.78323C10.2052 6.95614 9.73926 8.08101 8.90989 8.91038C8.08052 9.73976 6.95564 10.2057 5.78273 10.2057C4.60982 10.2057 3.48495 9.73976 2.65558 8.91038C1.8262 8.08101 1.36027 6.95614 1.36027 5.78323Z" fill="white"/>
</svg>
