<svg width="17" height="17" viewBox="0 0 17 17" fill="none" xmlns="http://www.w3.org/2000/svg">
<g clip-path="url(#clip0_4061_12797)">
<path d="M8.49805 0.236328C13.0549 0.236328 16.7616 3.94315 16.7617 8.5C16.7617 13.0569 13.055 16.7637 8.49805 16.7637C3.9412 16.7636 0.234375 13.0569 0.234375 8.5C0.234493 3.94323 3.94127 0.236446 8.49805 0.236328ZM8.49805 1.41699C4.59058 1.41711 1.41516 4.59253 1.41504 8.5C1.41504 12.4076 4.59051 15.5839 8.49805 15.584C12.4057 15.584 15.582 12.4076 15.582 8.5C15.5819 4.59246 12.4056 1.41699 8.49805 1.41699Z" fill="white"/>
<path d="M8.49805 0.236328C13.0549 0.236328 16.7616 3.94315 16.7617 8.5C16.7617 13.0569 13.055 16.7637 8.49805 16.7637C3.9412 16.7636 0.234375 13.0569 0.234375 8.5C0.234493 3.94323 3.94127 0.236446 8.49805 0.236328ZM8.49805 1.41699C4.59058 1.41711 1.41516 4.59253 1.41504 8.5C1.41504 12.4076 4.59051 15.5839 8.49805 15.584C12.4057 15.584 15.582 12.4076 15.582 8.5C15.5819 4.59246 12.4056 1.41699 8.49805 1.41699Z" stroke="white"/>
<path d="M8.50043 12.6311C8.16988 12.6311 7.91016 12.3714 7.91016 12.0408V4.95747C7.91016 4.62691 8.16988 4.36719 8.50043 4.36719C8.83099 4.36719 9.09071 4.62691 9.09071 4.95747V12.0408C9.09071 12.3714 8.83099 12.6311 8.50043 12.6311Z" fill="white"/>
<path d="M12.0408 9.09071H4.95747C4.62691 9.09071 4.36719 8.83099 4.36719 8.50043C4.36719 8.16988 4.62691 7.91016 4.95747 7.91016H12.0408C12.3714 7.91016 12.6311 8.16988 12.6311 8.50043C12.6311 8.83099 12.3714 9.09071 12.0408 9.09071Z" fill="white"/>
</g>
<defs>
<clipPath id="clip0_4061_12797">
<rect width="17" height="17" fill="white"/>
</clipPath>
</defs>
</svg>
